<svg width="24" height="24" viewBox="0 0 24 24" fill="none" xmlns="http://www.w3.org/2000/svg">
<path d="M10.2322 12L3.36612 5.13388C2.87796 4.64573 2.87796 3.85427 3.36612 3.36612C3.85427 2.87796 4.64573 2.87796 5.13388 3.36612L12 10.2322L18.8661 3.36612C19.3543 2.87796 20.1457 2.87796 20.6339 3.36612C21.122 3.85427 21.122 4.64573 20.6339 5.13388L13.7678 12L20.6339 18.8661C21.122 19.3543 21.122 20.1457 20.6339 20.6339C20.1457 21.122 19.3543 21.122 18.8661 20.6339L12 13.7678L5.13388 20.6339C4.64573 21.122 3.85427 21.122 3.36612 20.6339C2.87796 20.1457 2.87796 19.3543 3.36612 18.8661L10.2322 12Z" fill="#6D6D6D"/>
</svg>
