<svg width="33" height="32" viewBox="0 0 33 32" fill="none" xmlns="http://www.w3.org/2000/svg">
<path fill-rule="evenodd" clip-rule="evenodd" d="M5.81127 12.2221C7.36789 7.81797 11.5681 4.66665 16.5001 4.66665C20.1671 4.66665 23.428 6.40684 25.5017 9.11286L23.5573 11.0572C23.176 11.4385 23.0619 12.012 23.2683 12.5103C23.4747 13.0085 23.9609 13.3334 24.5001 13.3334H29.8335C30.9381 13.3334 31.8335 12.4379 31.8335 11.3334V6.00002C31.8335 5.46074 31.5086 4.97455 31.0104 4.76818C30.5122 4.5618 29.9387 4.67588 29.5573 5.05721L27.8745 6.74006C25.1872 3.44311 21.0902 1.33331 16.5001 1.33331C10.1116 1.33331 4.6811 5.41699 2.66847 11.1112C2.36173 11.9791 2.8166 12.9313 3.68446 13.238C4.55232 13.5448 5.50453 13.0899 5.81127 12.2221Z" fill="#9D9D9D"/>
<path fill-rule="evenodd" clip-rule="evenodd" d="M27.1887 19.7779C25.6321 24.182 21.4318 27.3333 16.4998 27.3333C12.8329 27.3333 9.57199 25.5931 7.4983 22.8871L9.44265 20.9428C9.82398 20.5614 9.93805 19.9879 9.73168 19.4897C9.5253 18.9915 9.03912 18.6666 8.49984 18.6666H3.1665C2.06193 18.6666 1.1665 19.562 1.1665 20.6666V25.9999C1.1665 26.5392 1.49136 27.0254 1.98959 27.2318C2.48783 27.4382 3.06132 27.3241 3.44265 26.9428L5.1255 25.2599C7.8128 28.5569 11.9097 30.6667 16.4998 30.6667C22.8884 30.6667 28.3189 26.583 30.3315 20.8887C30.6383 20.0209 30.1834 19.0687 29.3155 18.7619C28.4477 18.4552 27.4955 18.91 27.1887 19.7779Z" fill="#9D9D9D"/>
</svg>
