<svg width="32" height="32" viewBox="0 0 32 32" fill="none" xmlns="http://www.w3.org/2000/svg">
<g clip-path="url(#clip0_795_1653)">
<path d="M32 16C32 24.8368 24.8368 32 16 32C7.16352 32 0 24.8368 0 16C0 7.16336 7.16352 0 16 0C24.8368 0 32 7.16336 32 16Z" fill="#2E2E2E"/>
<path fill-rule="evenodd" clip-rule="evenodd" d="M15.9735 26.3846C15.976 26.3794 15.9786 26.3743 15.9786 26.3691C15.9786 26.3691 15.9786 26.369 15.9786 26.369C16.0768 26.2295 16.1776 26.0899 16.2784 25.9504C16.3792 25.8108 16.48 25.6713 16.5782 25.5317C17.5293 24.1929 18.4804 22.8515 19.4315 21.5101C20.3826 20.1688 21.3337 18.8275 22.2847 17.4888C22.2882 17.4819 22.2928 17.475 22.2974 17.4681C22.3066 17.4543 22.3158 17.4405 22.3158 17.4268H22.3054C22.2951 17.4371 22.2847 17.4474 22.2744 17.4371C21.2526 18.0464 20.2269 18.6518 19.1996 19.2581C18.5536 19.6393 17.9071 20.0209 17.2605 20.4041C17.0434 20.5333 16.8289 20.66 16.6143 20.7866C16.3998 20.9132 16.1853 21.0399 15.9682 21.1691V21.1794L15.441 20.8693C14.9242 20.5643 14.4099 20.2594 13.8956 19.9544C13.3812 19.6494 12.8669 19.3445 12.35 19.0395C11.9003 18.7759 11.4532 18.5122 11.0061 18.2486C10.5589 17.985 10.1118 17.7214 9.66213 17.4578L9.66212 17.4578C9.65179 17.4474 9.63111 17.4268 9.6001 17.4268C9.608 17.4386 9.61438 17.4474 9.61984 17.455C9.62867 17.4672 9.63506 17.476 9.64145 17.4888C9.72415 17.6077 9.80686 17.724 9.88956 17.8403C9.97226 17.9566 10.055 18.0729 10.1377 18.1918C10.453 18.6363 10.7709 19.0834 11.0888 19.5305C11.4067 19.9777 11.7245 20.4248 12.0399 20.8693C12.3655 21.3293 12.6937 21.7919 13.0219 22.2545C13.3502 22.7172 13.6784 23.1798 14.0041 23.6399C14.3245 24.0896 14.645 24.5418 14.9655 24.9941C15.286 25.4464 15.6064 25.8987 15.9269 26.3484C15.931 26.3566 15.9367 26.3631 15.9421 26.3693C15.9504 26.3789 15.9579 26.3876 15.9579 26.4001H15.9683C15.9683 26.3949 15.9709 26.3898 15.9735 26.3846Z" fill="#8A92B2"/>
<path fill-rule="evenodd" clip-rule="evenodd" d="M15.9894 5.64145V5.63111C15.9894 5.62767 15.9883 5.62422 15.9871 5.62077C15.9848 5.61388 15.9825 5.60699 15.9894 5.6001H15.9791C15.9791 5.61523 15.9735 5.62483 15.9665 5.637L15.9665 5.63701L15.9665 5.63703C15.9639 5.64147 15.9611 5.64626 15.9584 5.65179C15.7671 5.97227 15.5733 6.29276 15.3794 6.61324C15.1856 6.93371 14.9918 7.25418 14.8005 7.57465C14.5369 8.01401 14.2707 8.45338 14.0045 8.89274C13.7383 9.3321 13.4721 9.77147 13.2085 10.2108C12.9242 10.6863 12.6374 11.1618 12.3505 11.6373L12.3505 11.6373L12.3504 11.6375L12.3504 11.6376C12.0635 12.1131 11.7767 12.5886 11.4924 13.0641C11.2236 13.5086 10.9574 13.9506 10.6912 14.3925C10.425 14.8345 10.1588 15.2764 9.89 15.721L9.61088 16.1862L9.61088 16.1862L9.6148 16.1901L9.6001 16.1965V16.2068C9.62077 16.2172 9.64145 16.2275 9.65179 16.2379C10.6494 16.8271 11.6496 17.419 12.6499 18.0109L12.6507 18.0113C13.6506 18.603 14.6505 19.1947 15.6478 19.7838C15.7408 19.8458 15.8339 19.8975 15.9269 19.9492L15.9314 19.954C15.9426 19.9665 15.9606 19.9865 15.9786 19.9595C15.9632 19.9441 15.965 19.923 15.9669 19.9004C15.9676 19.8927 15.9683 19.8847 15.9683 19.8768V13.3267C15.971 13.3278 15.9737 13.3289 15.9764 13.33C15.9683 13.36 15.9683 13.3974 15.9683 13.426V19.8148V19.9079C15.9683 19.9182 15.9683 19.9492 15.9993 19.9492C16.0096 19.9389 16.0303 19.9285 16.051 19.9182L20.8271 17.0959L22.3468 16.1965L22.3365 16.1862C22.3352 16.1856 22.334 16.1849 22.3328 16.1843C22.3221 16.1528 22.301 16.1219 22.2835 16.0961C22.2803 16.0915 22.2773 16.0871 22.2744 16.0828C20.7569 13.5511 19.2339 11.0248 17.7094 8.49607C17.1363 7.54539 16.563 6.59436 15.9896 5.64256C15.9895 5.64219 15.9895 5.64182 15.9894 5.64145ZM15.9786 13.3084C15.9754 13.3115 15.9719 13.3144 15.9683 13.3171V13.319C15.9864 13.3122 15.9786 13.3122 15.9786 13.3122V13.3084Z" fill="#8A92B2"/>
</g>
<defs>
<clipPath id="clip0_795_1653">
<rect width="32" height="32" rx="16" fill="white"/>
</clipPath>
</defs>
</svg>
