<svg width="25" height="25" viewBox="0 0 25 25" fill="none" xmlns="http://www.w3.org/2000/svg">
<g clip-path="url(#clip0_2313_2907)">
<path d="M12.5 20.5C10.0126 20.4988 7.57771 19.784 5.48436 18.4405C3.39101 17.0969 1.72707 15.1809 0.690001 12.92L0.5 12.5L0.690001 12.08C1.72905 9.82164 3.39384 7.90852 5.48704 6.56745C7.58023 5.22639 10.0141 4.51361 12.5 4.51361C14.9859 4.51361 17.4198 5.22639 19.513 6.56745C21.6062 7.90852 23.271 9.82164 24.31 12.08L24.5 12.5L24.31 12.92C23.2729 15.1809 21.609 17.0969 19.5156 18.4405C17.4223 19.784 14.9874 20.4988 12.5 20.5ZM2.71 12.5C3.6331 14.3018 5.03554 15.814 6.76289 16.8698C8.49024 17.9257 10.4755 18.4845 12.5 18.4845C14.5245 18.4845 16.5098 17.9257 18.2371 16.8698C19.9645 15.814 21.3669 14.3018 22.29 12.5C21.3669 10.6982 19.9645 9.18609 18.2371 8.13019C16.5098 7.0743 14.5245 6.51559 12.5 6.51559C10.4755 6.51559 8.49024 7.0743 6.76289 8.13019C5.03554 9.18609 3.6331 10.6982 2.71 12.5Z" fill="#9D9D9D"/>
<path d="M12.5 4.5C9.93348 4.5 7.42438 5.25969 5.2889 6.68335C3.15342 8.107 1.48712 10.1309 0.5 12.5C1.48712 14.8691 3.15342 16.893 5.2889 18.3167C7.42438 19.7403 9.93348 20.5 12.5 20.5C15.0665 20.5 17.5756 19.7403 19.7111 18.3167C21.8466 16.893 23.5129 14.8691 24.5 12.5C23.5129 10.1309 21.8466 8.107 19.7111 6.68335C17.5756 5.25969 15.0665 4.5 12.5 4.5ZM12.5 18.5C10.4722 18.5004 8.4837 17.9402 6.75426 16.8814C5.02483 15.8225 3.62174 14.3062 2.7 12.5C3.62119 10.693 5.02404 9.17591 6.75352 8.11634C8.483 7.05677 10.4718 6.496 12.5 6.496C14.5282 6.496 16.517 7.05677 18.2465 8.11634C19.976 9.17591 21.3788 10.693 22.3 12.5C21.3783 14.3062 19.9752 15.8225 18.2457 16.8814C16.5163 17.9402 14.5278 18.5004 12.5 18.5Z" fill="#9D9D9D"/>
<path d="M12.5 16.5C11.7089 16.5 10.9355 16.2654 10.2777 15.8259C9.61992 15.3864 9.10723 14.7616 8.80448 14.0307C8.50173 13.2998 8.42252 12.4956 8.57686 11.7196C8.7312 10.9437 9.11217 10.231 9.67158 9.67157C10.231 9.11216 10.9437 8.7312 11.7196 8.57686C12.4956 8.42252 13.2998 8.50173 14.0307 8.80448C14.7616 9.10723 15.3864 9.61993 15.8259 10.2777C16.2654 10.9355 16.5 11.7089 16.5 12.5C16.5 13.5609 16.0786 14.5783 15.3284 15.3284C14.5783 16.0786 13.5609 16.5 12.5 16.5ZM12.5 10.5C12.1044 10.5 11.7178 10.6173 11.3889 10.8371C11.06 11.0568 10.8036 11.3692 10.6522 11.7346C10.5009 12.1001 10.4613 12.5022 10.5384 12.8902C10.6156 13.2781 10.8061 13.6345 11.0858 13.9142C11.3655 14.1939 11.7219 14.3844 12.1098 14.4616C12.4978 14.5387 12.8999 14.4991 13.2654 14.3478C13.6308 14.1964 13.9432 13.94 14.1629 13.6111C14.3827 13.2822 14.5 12.8956 14.5 12.5C14.5 11.9696 14.2893 11.4609 13.9142 11.0858C13.5391 10.7107 13.0304 10.5 12.5 10.5Z" fill="#9D9D9D"/>
</g>
<defs>
<clipPath id="clip0_2313_2907">
<rect width="24" height="24" fill="white" transform="translate(0.5 0.5)"/>
</clipPath>
</defs>
</svg>
