<svg width="16" height="16" viewBox="0 0 16 16" fill="none" xmlns="http://www.w3.org/2000/svg">
<path d="M8.89931 7.10085C8.66787 7.33228 8.35393 7.46227 8.02661 7.46227H6.35062L11.3941 2.41984C11.6256 2.18844 11.9395 2.05844 12.2668 2.05844H13.9428L8.89931 7.10085ZM2.05716 13.9415V8.87985C2.05716 8.60989 2.27607 8.39103 2.5461 8.39103H7.60883L2.05716 13.9415ZM2.59215 2.05844H10.4466L5.24326 7.26062C5.11411 7.38974 4.93897 7.46227 4.75632 7.46227C4.49007 7.46227 4.24767 7.30881 4.13383 7.06816L2.11798 2.80709C1.95338 2.45918 2.2072 2.05844 2.59215 2.05844ZM1.06367 0.00174141C0.476225 0.00174141 0 0.477841 0 1.06519V15.9983H13.2382C13.6862 15.9983 14.1159 15.8203 14.4327 15.5036L15.5052 14.4313C15.822 14.1146 16 13.685 16 13.2371V0.00174141H1.06367Z" fill="#6D6D6D"/>
</svg>
