<svg width="33" height="32" viewBox="0 0 33 32" fill="none" xmlns="http://www.w3.org/2000/svg">
<path d="M16.5002 14C17.4206 14 18.1668 14.7462 18.1668 15.6667V22.3334C18.1668 23.2538 17.4206 24 16.5002 24C15.5797 24 14.8335 23.2538 14.8335 22.3334V15.6667C14.8335 14.7462 15.5797 14 16.5002 14Z" fill="#F55353"/>
<path d="M16.5002 12C17.6047 12 18.5002 11.1046 18.5002 10C18.5002 8.89547 17.6047 8.00004 16.5002 8.00004C15.3956 8.00004 14.5002 8.89547 14.5002 10C14.5002 11.1046 15.3956 12 16.5002 12Z" fill="#F55353"/>
<path fill-rule="evenodd" clip-rule="evenodd" d="M1.8335 16C1.8335 7.89986 8.39999 1.33337 16.5002 1.33337C24.6003 1.33337 31.1668 7.89986 31.1668 16C31.1668 24.1002 24.6003 30.6667 16.5002 30.6667C8.39999 30.6667 1.8335 24.1002 1.8335 16ZM16.5002 4.66671C10.2409 4.66671 5.16683 9.74081 5.16683 16C5.16683 22.2593 10.2409 27.3334 16.5002 27.3334C22.7594 27.3334 27.8335 22.2593 27.8335 16C27.8335 9.74081 22.7594 4.66671 16.5002 4.66671Z" fill="#F55353"/>
</svg>
